<mxfile host="app.diagrams.net" modified="2024-02-01T06:26:22.873Z" agent="Mozilla/5.0 (X11; Linux x86_64) AppleWebKit/537.36 (KHTML, like Gecko) Chrome/120.0.0.0 Safari/537.36" version="23.0.0" etag="0kk3tKA8P8jlkUTkXiMw" type="github">
  <diagram name="Page-1" id="RA1vm2wirV6QgVT2bhX1">
    <mxGraphModel>
      <root>
        <mxCell id="0" />
        <mxCell id="1" parent="0" />
      </root>
    </mxGraphModel>
  </diagram>
</mxfile>
